<?xml version="1.0" encoding="UTF-8"?>
<!DOCTYPE svg PUBLIC "-//W3C//DTD SVG 1.1//EN" "http://www.w3.org/Graphics/SVG/1.1/DTD/svg11.dtd">
<!-- Creator: CorelDRAW -->
<svg xmlns="http://www.w3.org/2000/svg" xml:space="preserve" width="270mm" height="60mm" version="1.1" style="shape-rendering:geometricPrecision; text-rendering:geometricPrecision; image-rendering:optimizeQuality; fill-rule:evenodd; clip-rule:evenodd"
viewBox="0 0 27000 6000"
 xmlns:xlink="http://www.w3.org/1999/xlink"
 xmlns:xodm="http://www.corel.com/coreldraw/odm/2003">
 <defs>
  <style type="text/css">
   <![CDATA[
    .fil0 {fill:#FEFEFE}
    .fil1 {fill:#FEFEFE;fill-rule:nonzero}
   ]]>
  </style>
 </defs>
 <g id="Слой_x0020_1">
  <metadata id="CorelCorpID_0Corel-Layer"/>
  <g id="_2352064920368">
   <path class="fil0" d="M2970.31 31.04c1642.83,0 2974.62,1331.8 2974.62,2974.64 0,1642.82 -1331.79,2974.62 -2974.62,2974.62 -1642.86,0 -2974.64,-1331.8 -2974.64,-2974.62 0,-1642.84 1331.78,-2974.64 2974.64,-2974.64zm0 427.29c1406.85,0 2547.33,1140.49 2547.33,2547.35 0,1406.84 -1140.48,2547.33 -2547.33,2547.33 -1406.87,0 -2547.35,-1140.49 -2547.35,-2547.33 0,-1406.86 1140.48,-2547.35 2547.35,-2547.35z"/>
   <path class="fil0" d="M1672.85 1708.24c536.86,-536.86 1323.6,-671.48 1985.79,-403.91l-459.52 459.52 -194.54 194.54 -0.03 0.04 818.47 818.47 -346.17 346.18 -818.43 -818.43 -1.78 1.78 -0.05 -0.05 -798.27 798.27 -1.73 -1.74 -194.58 194.58 610.5 610.49 194.57 -194.57 -1.64 -1.64 213.69 -213.7 213.75 213.75 -867.24 867.24c-125.71,-75.62 -244.37,-167.51 -352.79,-275.93 -716.56,-716.56 -716.56,-1878.33 0,-2594.89zm1607.13 2002.88l0.67 -0.68 -600.96 -600.96 -1.15 1.15 -0.56 -0.56 -407.11 407.12 -217.97 -217.97 605.47 -605.47 623.9 623.9 194.5 194.5 0.08 0.08 735.35 -735.36 -194.57 -194.57 -0.04 0.03 -623.9 -623.9 524.3 -524.3c124.59,75.26 242.22,166.55 349.77,274.09 716.57,716.58 716.57,1878.35 0,2594.93 -535.91,535.91 -1320.84,670.97 -1982.31,405.24l995.9 -995.9 -1.37 -1.37z"/>
   <path class="fil1" d="M1382.57 4533.33c-17.08,13.46 -34.37,23.03 -51.85,28.57 -17.49,5.67 -34.71,7.3 -51.78,4.88 -17.06,-2.42 -33.72,-8.87 -49.9,-19.4 -16.31,-10.54 -31.74,-25.12 -46.47,-43.82 -13.82,-17.52 -24.03,-35.02 -30.65,-52.36 -6.61,-17.47 -9.27,-34.47 -7.96,-51.14 1.31,-16.66 6.62,-32.79 15.94,-48.37 9.32,-15.59 22.83,-30.41 40.64,-44.45l169.79 -133.83c1.4,-1.1 3.07,-1.7 4.94,-1.75 1.75,-0.06 3.92,0.74 6.4,2.36 2.48,1.63 5.31,4.17 8.6,7.43 3.23,3.19 7.1,7.65 11.51,13.25 4.24,5.37 7.62,10.11 9.96,13.99 2.4,3.96 4.15,7.24 5.1,9.95 0.94,2.72 1.21,5.02 0.86,6.85 -0.43,1.88 -1.4,3.37 -2.8,4.47l-164.93 129.99c-11.11,8.76 -19.58,17.71 -25.61,26.87 -5.95,9.11 -9.65,18.35 -10.89,27.69 -1.29,9.25 -0.53,18.56 2.45,27.79 2.98,9.23 7.92,18.22 14.83,26.99 7.02,8.9 14.74,15.83 22.98,20.67 8.3,4.92 16.97,7.76 26.09,8.57 9.13,0.68 18.63,-0.6 28.37,-3.98 9.82,-3.45 19.63,-9.03 29.42,-16.75l168.17 -132.54c1.39,-1.1 3.07,-1.71 4.94,-1.75 1.74,-0.06 3.92,0.73 6.34,2.28 2.42,1.56 5.26,4.1 8.6,7.43 3.34,3.33 7.16,7.73 11.46,13.17 4.29,5.45 7.61,10.12 9.95,14 2.35,3.88 4.09,7.16 5.04,9.88 0.95,2.71 1.21,5.01 0.74,6.69 -0.48,1.81 -1.46,3.3 -2.85,4.4l-167.43 131.97zm335.56 425.82c-2.61,3.32 -5.52,5.8 -8.72,7.58 -3.21,1.65 -6.44,2.56 -9.82,2.76 -3.25,0.19 -6.51,-0.36 -9.8,-1.64 -3.37,-1.34 -6.31,-3.06 -9.03,-5.21l-24.22 -19.09c-5.08,-4.01 -9.02,-7.95 -11.95,-11.81 -2.79,-3.87 -4.73,-8.38 -5.73,-13.47 -1.08,-5.14 -1.18,-11.07 -0.45,-17.9 0.67,-6.76 2.07,-15.2 4.15,-25.26l33.63 -185.14c2.1,-11 4.67,-22.58 7.55,-34.87 2.89,-12.29 6.11,-23.96 9.47,-35.03l-0.44 -0.35c-7.59,10.84 -15.28,21.5 -23.11,32.04 -7.77,10.46 -16.04,21.25 -24.63,32.15l-115.21 146.14c-1.1,1.4 -2.51,2.43 -4.25,2.97 -1.68,0.47 -3.83,0.32 -6.39,-0.38 -2.55,-0.7 -5.66,-2.2 -9.32,-4.37 -3.66,-2.17 -8.11,-5.31 -13.26,-9.37 -5.08,-4.01 -9.1,-7.54 -12.07,-10.59 -2.96,-3.06 -5.08,-5.67 -6.28,-7.93 -1.33,-2.25 -1.84,-4.33 -1.64,-5.95 0.2,-1.76 0.87,-3.38 1.97,-4.78l197.8 -250.9c5.34,-6.77 11.33,-10.28 17.97,-10.54 6.58,-0.31 12.77,1.83 18.59,6.41l30.4 23.97c5.45,4.3 9.74,8.4 12.74,12.31 3,3.92 5.1,8.08 6.36,12.54 1.26,4.45 1.68,9.68 1.23,15.54 -0.38,5.78 -1.5,12.66 -3.19,20.4l-26.24 144.89c-1.71,8.68 -3.43,17.22 -5.04,25.62 -1.61,8.41 -3.29,16.75 -5.19,24.92 -1.83,8.22 -3.68,16.32 -5.48,24.21 -1.79,8.02 -3.67,15.85 -5.62,23.63l0.22 0.17c7.51,-10.43 15.44,-21.25 23.81,-32.32 8.43,-11.14 16.6,-21.66 24.43,-31.6l103.31 -131.04c1.1,-1.4 2.59,-2.38 4.4,-2.86 1.68,-0.47 3.97,-0.34 6.65,0.35 2.76,0.74 5.87,2.24 9.48,4.48 3.6,2.25 7.99,5.47 13.14,9.53 4.93,3.89 8.94,7.28 11.96,10.26 3.03,2.98 5.06,5.55 6.21,7.88 1.07,2.28 1.58,4.35 1.37,5.98 -0.19,1.76 -0.81,3.3 -1.97,4.77l-197.79 250.9zm293.17 176.32c-0.81,1.59 -2.07,2.84 -3.83,3.64 -1.72,0.7 -4.03,0.91 -6.88,0.52 -2.8,-0.46 -6.49,-1.48 -10.76,-3 -4.36,-1.56 -9.76,-3.97 -16.13,-7.17 -6.19,-3.12 -11.26,-5.98 -15.19,-8.59 -3.94,-2.61 -6.95,-4.97 -9,-6.95 -2.01,-2.05 -3.22,-4.03 -3.67,-5.83 -0.42,-1.89 -0.16,-3.65 0.64,-5.24l150.96 -299.96c0.8,-1.59 2.06,-2.84 3.83,-3.64 1.72,-0.7 4.02,-0.91 7.04,-0.44 2.93,0.43 6.5,1.49 10.85,3.05 4.36,1.56 9.68,3.92 15.87,7.04 6.37,3.2 11.52,6.11 15.37,8.68 3.76,2.52 6.82,4.8 8.83,6.86 2,2.06 3.21,4.03 3.67,5.83 0.41,1.89 0.16,3.65 -0.64,5.24l-150.96 299.96zm414.27 145.2c-1.73,2.73 -3.5,4.87 -5.45,6.27 -1.97,1.49 -4.61,2.22 -8.04,2.33 -3.44,0.11 -7.95,-0.46 -13.54,-1.73 -5.49,-1.24 -12.65,-3.14 -21.5,-5.6 -7.04,-1.97 -13.09,-3.66 -18.12,-5.16 -5.04,-1.5 -9.2,-2.95 -12.63,-4.29 -3.42,-1.35 -6.16,-2.69 -8.15,-3.93 -2.05,-1.35 -3.61,-2.76 -4.84,-4.27 -1.17,-1.4 -1.96,-3.08 -2.37,-4.75 -0.39,-1.76 -0.58,-3.86 -0.68,-6.32l-17.12 -331.97c-0.29,-6.99 -0.26,-12.34 0.41,-16.14 0.58,-3.83 2.17,-6.4 4.96,-7.67 2.67,-1.2 6.79,-1.32 12.15,-0.31 5.46,1.04 12.91,2.92 22.48,5.59 8.13,2.26 14.4,4.21 18.91,5.85 4.5,1.65 7.85,3.26 10.06,4.75 2.18,1.59 3.61,3.45 4.04,5.41 0.49,2.09 0.79,4.5 0.93,7.46l9.53 287.33 0.27 0.08 155.11 -240.07c1.55,-2.78 3.13,-4.96 4.63,-6.49 1.61,-1.59 3.82,-2.54 6.74,-2.89 2.81,-0.29 6.71,0.02 11.6,1 4.8,0.94 11.44,2.6 19.75,4.92 8.12,2.26 14.37,4.3 18.73,6.1 4.37,1.8 7.09,3.92 8.25,6.38 1.04,2.53 0.78,5.57 -0.89,9.1 -1.57,3.55 -4.37,8.02 -8.19,13.68l-187.03 275.34zm551.41 62.86c-0.4,5.33 -0.92,9.71 -1.67,13.32 -0.74,3.52 -1.61,6.37 -2.71,8.44 -1.11,2.18 -2.35,3.68 -3.83,4.6 -1.39,0.93 -3.01,1.28 -4.6,1.16l-177.79 -13.54c-5.98,-0.46 -10.9,-2.62 -14.74,-6.49 -3.84,-3.86 -5.46,-9.81 -4.84,-17.85l23.53 -309.04c0.61,-8.03 3.11,-13.67 7.49,-16.91 4.39,-3.24 9.57,-4.63 15.55,-4.18l176.95 13.48c1.59,0.12 3.05,0.7 4.29,1.73 1.14,1.03 2.14,2.71 2.91,5.02 0.66,2.4 1.19,5.36 1.39,8.95 0.19,3.68 0.03,8.18 -0.39,13.69 -0.39,5.14 -0.91,9.43 -1.65,13.04 -0.74,3.52 -1.61,6.36 -2.71,8.44 -1.11,2.18 -2.35,3.68 -3.64,4.61 -1.39,0.93 -2.92,1.29 -4.51,1.16l-126.47 -9.63 -6.58 86.38 106.56 8.11c1.68,0.13 3.14,0.71 4.37,1.84 1.33,1.13 2.34,2.71 3.11,4.94 0.78,2.12 1.22,4.98 1.41,8.66 0.19,3.59 0.05,7.9 -0.33,12.95 -0.41,5.33 -0.93,9.71 -1.66,13.13 -0.73,3.42 -1.6,6.18 -2.69,8.16 -1.1,2.08 -2.34,3.49 -3.8,4.23 -1.38,0.83 -2.91,1.18 -4.59,1.06l-106.57 -8.12 -7.6 99.83 127.31 9.7c1.69,0.13 3.15,0.71 4.38,1.84 1.32,1.13 2.32,2.81 3.09,5.12 0.77,2.22 1.2,5.17 1.4,8.76 0.19,3.68 0.04,8.09 -0.37,13.41zm513.85 -30.03c0.24,1.95 0.07,3.67 -0.51,5.16 -0.58,1.48 -2.12,2.8 -4.71,4.05 -2.7,1.17 -6.53,2.29 -11.79,3.3 -5.26,1 -12.41,2.04 -21.44,3.12 -7.63,0.91 -13.7,1.45 -18.31,1.62 -4.6,0.17 -8.31,-0.05 -11.04,-0.76 -2.73,-0.71 -4.73,-1.7 -6.04,-3.15 -1.21,-1.46 -2.37,-3.21 -3.37,-5.26l-41.26 -75.24c-4.88,-8.48 -9.56,-16.04 -14.01,-22.49 -4.47,-6.55 -9.25,-11.84 -14.28,-15.96 -5.02,-4.12 -10.64,-6.94 -16.8,-8.66 -6.04,-1.64 -12.98,-2.04 -20.62,-1.13l-22.43 2.68 16.09 134.88c0.21,1.77 -0.15,3.51 -1.19,5.05 -1.03,1.64 -2.84,3.08 -5.43,4.33 -2.6,1.16 -6.14,2.34 -10.64,3.44 -4.4,1.09 -10.23,2.07 -17.21,2.91 -6.89,0.82 -12.7,1.23 -17.42,1.22 -4.72,0 -8.44,-0.31 -11.24,-0.83 -2.81,-0.61 -4.91,-1.58 -6.1,-2.86 -1.29,-1.35 -2.05,-2.96 -2.26,-4.73l-38.25 -320.59c-0.95,-8.01 0.41,-14.02 4.08,-18.05 3.67,-4.03 8.49,-6.39 14.45,-7.1l91.41 -10.91c9.21,-1.1 16.96,-1.84 22.97,-2.17 6,-0.34 11.54,-0.53 16.53,-0.66 14.4,0.36 27.56,2.29 39.51,5.87 11.93,3.48 22.38,8.75 31.23,15.72 8.86,6.97 16.02,15.55 21.5,25.85 5.48,10.3 9,22.44 10.68,36.49 1.4,11.73 1.2,22.71 -0.63,32.74 -1.9,10.14 -5.25,19.32 -10.2,27.66 -4.86,8.32 -11.24,15.78 -19.14,22.39 -7.88,6.7 -17.13,12.33 -27.59,17.17 5.6,1.88 10.9,4.36 15.99,7.44 5.09,3.07 9.99,7.02 14.71,11.74 4.72,4.73 9.33,10.13 13.76,16.4 4.42,6.17 8.86,13.29 13.3,21.26l38.2 66.15c3.52,6.57 5.98,11.38 7.21,14.53 1.31,3.06 2.07,5.51 2.29,7.38zm-121.31 -228.64c-1.39,-11.64 -5.17,-21.19 -11.42,-28.47 -6.26,-7.38 -15.6,-12.02 -27.99,-13.85 -3.74,-0.49 -7.92,-0.66 -12.64,-0.66 -4.72,0 -11.18,0.48 -19.37,1.46l-32.21 3.84 11.93 99.98 36.59 -4.37c10.23,-1.22 18.93,-3.48 26.27,-6.91 7.43,-3.34 13.35,-7.54 17.94,-12.62 4.6,-4.98 7.77,-10.84 9.55,-17.28 1.78,-6.44 2.26,-13.49 1.35,-21.12zm512.9 0.41c6.2,17.69 8.32,34.23 6.46,49.89 -1.99,15.59 -6.96,29.75 -15.06,42.63 -8.22,12.81 -18.96,24.13 -32.42,33.91 -13.45,9.78 -28.78,17.64 -45.94,23.66 -11.59,4.06 -22.64,6.84 -33.32,8.4 -10.59,1.52 -20.15,2.29 -28.72,2.22 -8.54,0.01 -15.9,-0.59 -22.09,-1.79 -6.18,-1.21 -10.74,-2.6 -13.82,-4 -3.02,-1.53 -5.76,-4.24 -8.22,-8.15 -2.46,-3.9 -5.01,-9.76 -7.8,-17.73 -1.89,-5.39 -3.27,-9.88 -4.19,-13.63 -0.91,-3.75 -1.41,-6.85 -1.42,-9.43 0.03,-2.5 0.53,-4.46 1.43,-5.87 0.98,-1.44 2.33,-2.4 4.1,-3.03 2.39,-0.83 6.34,-0.63 11.78,0.74 5.42,1.28 12.2,2.48 20.31,3.51 8.11,1.03 17.54,1.3 28.18,0.75 10.57,-0.43 22.22,-2.92 34.87,-7.35 8.31,-2.92 15.4,-6.5 21.27,-10.74 5.92,-4.36 10.53,-9.06 13.86,-14.29 3.33,-5.24 5.23,-10.88 5.85,-17.05 0.52,-6.15 -0.32,-12.51 -2.61,-19.06 -2.67,-7.61 -7,-13.44 -13.05,-17.38 -6.08,-4.03 -13.15,-6.91 -21.36,-8.8 -8.13,-1.92 -17.13,-3.23 -26.93,-3.97 -9.7,-0.77 -19.83,-1.6 -30.31,-2.59 -10.48,-0.99 -20.88,-2.61 -31.15,-4.98 -10.32,-2.24 -20.13,-5.85 -29.34,-10.87 -9.3,-4.98 -17.73,-11.76 -25.43,-20.39 -7.66,-8.54 -13.91,-19.86 -18.81,-33.84 -5.61,-16.01 -7.57,-31.22 -5.92,-45.5 1.68,-14.2 6.19,-27.11 13.46,-38.7 7.35,-11.61 17.09,-21.79 29.41,-30.57 12.32,-8.79 26.23,-15.86 41.63,-21.25 7.87,-2.76 16.05,-4.93 24.44,-6.49 8.37,-1.64 16.39,-2.56 24.01,-2.95 7.64,-0.29 14.55,-0.13 20.85,0.54 6.24,0.79 10.52,1.68 12.91,2.83 2.27,1.09 3.95,2.19 4.97,3.12 1.05,1.02 2.14,2.43 3.3,4.31 1.12,1.79 2.25,4.17 3.52,7.21 1.23,2.95 2.62,6.63 4.2,11.14 1.74,4.96 3.14,9.23 4.08,12.78 0.95,3.54 1.5,6.53 1.68,9.04 0.16,2.43 -0.14,4.42 -0.86,5.77 -0.77,1.46 -2.09,2.52 -4.04,3.2 -1.86,0.65 -5.3,0.47 -10.29,-0.46 -5,-0.93 -11.06,-1.79 -18.1,-2.6 -7.1,-0.69 -14.98,-0.8 -23.75,-0.31 -8.8,0.4 -17.88,2.29 -27.43,5.64 -7.43,2.6 -13.58,5.75 -18.5,9.56 -4.87,3.7 -8.57,7.88 -11.17,12.36 -2.6,4.49 -4.09,9.29 -4.28,14.42 -0.28,5.16 0.51,10.25 2.25,15.2 2.6,7.43 6.9,13.18 12.86,17.15 6,4.06 13.19,7 21.49,8.86 8.27,1.77 17.45,3.02 27.42,3.7 9.88,0.7 20.13,1.58 30.58,2.49 10.48,1 20.97,2.58 31.41,4.88 10.53,2.27 20.43,5.86 29.82,10.81 9.3,4.99 17.79,11.64 25.45,20.18 7.63,8.45 13.76,19.42 18.48,32.87zm313.59 -55.78c0.9,1.54 1.27,3.28 0.97,5.19 -0.34,1.83 -1.42,3.88 -3.3,6.06 -1.92,2.1 -4.78,4.64 -8.38,7.39 -3.68,2.81 -8.64,6.03 -14.79,9.63 -5.99,3.5 -11.15,6.19 -15.48,8.07 -4.33,1.88 -7.95,3.12 -10.72,3.77 -2.82,0.56 -5.13,0.5 -6.9,-0.1 -1.81,-0.68 -3.14,-1.85 -4.04,-3.39l-169.46 -289.91c-0.9,-1.54 -1.27,-3.28 -0.97,-5.19 0.34,-1.83 1.43,-3.87 3.46,-6.15 1.96,-2.23 4.78,-4.64 8.46,-7.44 3.69,-2.81 8.56,-5.98 14.55,-9.48 6.15,-3.6 11.39,-6.34 15.64,-8.17 4.17,-1.78 7.74,-3.11 10.56,-3.67 2.82,-0.56 5.14,-0.51 6.9,0.09 1.81,0.68 3.14,1.86 4.04,3.39l169.46 289.91zm192.12 -536.04c3.51,4.02 6.32,7.54 8.5,10.74 2.11,3.14 3.58,5.83 4.36,8.14 0.83,2.39 1.09,4.4 0.71,6.1 -0.25,1.71 -1.09,3.18 -2.29,4.23l-66.99 58.39 188.29 216.05c1.18,1.34 1.86,2.98 1.93,4.91 0,1.86 -0.68,4.08 -2.12,6.57 -1.49,2.42 -3.82,5.45 -6.99,8.95 -3.16,3.51 -7.36,7.54 -12.59,12.1 -5.23,4.55 -9.8,8.16 -13.7,10.82 -3.9,2.65 -7.22,4.55 -9.82,5.7 -2.67,1.08 -4.96,1.46 -6.8,1.2 -1.9,-0.33 -3.44,-1.24 -4.61,-2.58l-188.29 -216.04 -67 58.39c-1.34,1.17 -2.91,1.79 -4.64,1.81 -1.6,0.02 -3.56,-0.51 -5.8,-1.66 -2.12,-1.14 -4.65,-2.91 -7.47,-5.43 -2.88,-2.59 -5.98,-5.86 -9.49,-9.89 -3.57,-4.1 -6.51,-7.75 -8.68,-10.96 -2.17,-3.21 -3.64,-6.03 -4.48,-8.28 -0.84,-2.38 -1.04,-4.32 -0.79,-5.9 0.31,-1.64 1.2,-3.04 2.54,-4.21l188.7 -164.46c1.2,-1.05 2.64,-1.68 4.37,-1.83 1.74,-0.15 3.64,0.31 5.88,1.47 2.19,1.08 4.72,2.98 7.6,5.57 2.87,2.59 6.09,6 9.67,10.1zm362.47 -115.31l98.97 76.44c1.41,1.09 2.41,2.56 2.85,4.45 0.37,1.82 0.13,4.12 -0.79,6.85 -1,2.67 -2.69,6.09 -5.12,10.15 -2.41,4.05 -5.74,8.82 -9.98,14.31 -4.36,5.64 -8.19,10.14 -11.45,13.43 -3.19,3.22 -6.08,5.73 -8.46,7.44 -2.52,1.73 -4.69,2.54 -6.43,2.5 -1.88,-0.03 -3.56,-0.61 -4.97,-1.7l-98.97 -76.44 -212.77 -41.38c-7.46,-1.38 -13.07,-2.86 -16.67,-4.34 -3.59,-1.48 -5.48,-3.64 -5.72,-6.55 -0.22,-2.78 1.22,-6.64 4.29,-11.38 3.07,-4.74 7.73,-11.08 13.86,-19.02 5.16,-6.68 9.38,-11.83 12.77,-15.61 3.39,-3.78 6.32,-6.49 8.91,-8.16 2.59,-1.67 4.95,-2.58 7.07,-2.71 2.14,-0.01 4.57,0.21 7.45,0.78l93.45 21.94c9.02,2.12 18.42,4.52 28.06,7.23 9.77,2.68 19.78,5.68 30.34,8.86l0.35 -0.44c-5.75,-8.82 -11.14,-17.49 -16.32,-26.11 -5.19,-8.62 -9.98,-16.83 -14.54,-24.73l-44.81 -84.01c-1.8,-2.57 -2.97,-4.89 -3.45,-7.04 -0.6,-2.13 -0.45,-4.62 0.37,-7.53 0.85,-2.78 2.55,-6.21 5.17,-10.22 2.57,-3.94 6.32,-9.1 11.13,-15.33 6.36,-8.24 11.5,-14.58 15.36,-18.82 3.93,-4.31 7.3,-6.68 10.04,-7.17 2.88,-0.5 5.47,0.9 7.82,4.14 2.41,3.17 5.12,8.1 8.38,14.76l93.81 195.41z"/>
   <path class="fil1" d="M1082.65 2092.28c17.09,7.73 30.52,17.61 40.56,29.76 9.92,12.2 16.73,25.57 20.45,40.32 3.6,14.8 4.38,30.37 2.17,46.87 -2.21,16.49 -7.1,33 -14.6,49.57 -5.06,11.19 -10.67,21.1 -16.91,29.9 -6.21,8.72 -12.25,16.17 -18.22,22.32 -5.89,6.19 -11.4,11.11 -16.55,14.75 -5.14,3.64 -9.29,5.98 -12.43,7.24 -3.18,1.13 -7.04,1.24 -11.57,0.32 -4.52,-0.91 -10.52,-3.11 -18.21,-6.59 -5.21,-2.35 -9.4,-4.46 -12.75,-6.38 -3.35,-1.93 -5.94,-3.71 -7.81,-5.49 -1.79,-1.73 -2.86,-3.45 -3.26,-5.07 -0.36,-1.71 -0.13,-3.35 0.64,-5.06 1.04,-2.31 3.92,-5.02 8.67,-8.02 4.66,-3.03 10.21,-7.11 16.55,-12.27 6.35,-5.15 13.05,-11.79 20,-19.87 6.99,-7.95 13.22,-18.09 18.74,-30.31 3.63,-8.03 5.94,-15.63 6.92,-22.8 0.93,-7.29 0.71,-13.87 -0.78,-19.9 -1.49,-6.02 -4.26,-11.29 -8.3,-16 -4.09,-4.62 -9.27,-8.4 -15.59,-11.26 -7.34,-3.32 -14.55,-4.22 -21.58,-2.56 -7.11,1.62 -14.08,4.75 -21.12,9.39 -6.99,4.55 -14.16,10.16 -21.45,16.74 -7.26,6.49 -14.84,13.25 -22.8,20.14 -7.95,6.9 -16.3,13.31 -25.1,19.11 -8.75,5.92 -18.13,10.52 -28.12,13.73 -10.02,3.28 -20.75,4.71 -32.3,4.32 -11.47,-0.35 -23.98,-3.64 -37.47,-9.74 -15.47,-6.99 -27.82,-16.08 -37.02,-27.13 -9.12,-11.01 -15.34,-23.19 -18.71,-36.44 -3.33,-13.34 -3.96,-27.41 -1.82,-42.39 2.14,-14.98 6.64,-29.93 13.36,-44.79 3.43,-7.6 7.51,-15.02 12.18,-22.17 4.59,-7.18 9.45,-13.62 14.43,-19.4 5.06,-5.73 9.95,-10.62 14.78,-14.72 4.88,-3.96 8.48,-6.45 10.96,-7.39 2.36,-0.89 4.31,-1.34 5.69,-1.44 1.47,-0.05 3.24,0.13 5.39,0.59 2.08,0.42 4.58,1.25 7.65,2.43 2.98,1.14 6.61,2.68 10.97,4.65 4.78,2.16 8.84,4.1 12.06,5.86 3.21,1.77 5.75,3.43 7.7,5.03 1.87,1.56 3.1,3.15 3.58,4.6 0.52,1.58 0.38,3.26 -0.47,5.14 -0.81,1.79 -3.32,4.16 -7.44,7.13 -4.12,2.97 -8.93,6.77 -14.37,11.3 -5.4,4.66 -10.93,10.29 -16.63,16.97 -5.78,6.65 -10.67,14.51 -14.84,23.74 -3.25,7.18 -5.21,13.8 -5.85,19.99 -0.69,6.07 -0.22,11.63 1.23,16.61 1.45,4.98 3.89,9.37 7.48,13.05 3.54,3.76 7.77,6.7 12.55,8.87 7.18,3.24 14.3,4.1 21.29,2.52 7.07,-1.53 14.16,-4.7 21.24,-9.43 6.99,-4.76 14.23,-10.54 21.6,-17.29 7.34,-6.66 15.04,-13.47 22.91,-20.4 7.96,-6.9 16.35,-13.4 25.22,-19.36 8.91,-6.06 18.33,-10.75 28.4,-14.12 10.02,-3.29 20.7,-4.83 32.17,-4.48 11.38,0.31 23.55,3.44 36.53,9.31zm373.58 -409.49c6.5,2.36 11.49,4.5 14.86,6.43 3.37,1.93 5.19,4.32 5.53,7.08 0.2,2.78 -1.05,6.34 -3.86,10.68 -2.76,4.27 -7.02,9.99 -12.52,16.99 -5.79,7.37 -10.39,13.07 -13.79,16.95 -3.47,3.95 -6.34,6.7 -8.74,8.39 -2.35,1.61 -4.39,2.39 -6.26,2.35 -1.8,0.02 -3.93,-0.46 -6.18,-1.39l-70.59 -25.79 -82.83 105.41 40.77 60.54c1.6,2.21 2.72,4.28 3.29,6.28 0.71,1.99 0.53,4.34 -0.29,7.05 -0.81,2.7 -2.61,6.05 -5.32,10.12 -2.72,4.06 -6.51,9.19 -11.38,15.38 -5.21,6.63 -9.49,11.62 -12.88,15.03 -3.4,3.41 -6.46,5.18 -9.18,5.31 -2.86,0.14 -5.62,-1.2 -8.3,-4.01 -2.67,-2.82 -5.78,-7.06 -9.54,-12.75l-180.38 -281c-1.8,-2.73 -2.97,-5.32 -3.52,-7.66 -0.68,-2.32 -0.34,-5.04 0.82,-8.18 1.22,-3.22 3.42,-7.09 6.73,-11.75 3.26,-4.6 7.82,-10.56 13.61,-17.93 6.66,-8.47 12.07,-15.2 16.23,-20.04 4.21,-4.91 7.8,-8.41 10.81,-10.57 3.01,-2.17 5.76,-3.23 8.29,-3.27 2.55,0.1 5.55,0.67 8.92,2l315.7 108.35zm-306 -33l-0.17 0.22 88.31 132.35 61.63 -78.43 -149.77 -54.14zm634.57 -258.67c3.36,4.27 6.11,8.07 8.06,11.31 1.95,3.24 3.27,6.13 4.11,8.57 0.83,2.57 1.05,4.67 0.58,6.35 -0.41,1.75 -1.32,3.18 -2.72,4.28l-128.03 100.62c-4.71,3.71 -9.79,5.44 -15.24,5.19 -5.44,-0.26 -10.66,-3.55 -15.64,-9.89l-199.51 -253.84c-1.1,-1.4 -1.7,-3.08 -1.67,-5.01 0.09,-1.86 0.88,-4.03 2.44,-6.45 1.56,-2.42 4.1,-5.25 7.44,-8.59 3.34,-3.34 7.73,-7.15 13.19,-11.44 5.6,-4.4 10.42,-7.83 14.38,-10.23 3.88,-2.34 7.24,-4.14 9.95,-5.08 2.72,-0.94 5.02,-1.2 6.85,-0.85 1.88,0.43 3.37,1.41 4.47,2.81l176.74 224.88 87.79 -69c1.4,-1.1 3.02,-1.77 4.68,-1.78 1.75,-0.05 3.62,0.5 5.8,1.77 2.13,1.19 4.5,3.14 7.24,5.87 2.69,2.66 5.67,6.16 9.09,10.51zm241.39 -259.82l57.01 111.32c0.81,1.58 1.08,3.34 0.68,5.23 -0.45,1.81 -1.64,3.79 -3.63,5.86 -2.04,1.99 -5.03,4.37 -8.95,7.01 -3.92,2.63 -8.96,5.53 -15.14,8.7 -6.34,3.24 -11.72,5.69 -16.07,7.28 -4.26,1.55 -7.94,2.59 -10.83,3.12 -3.01,0.49 -5.32,0.31 -6.88,-0.48 -1.68,-0.82 -2.95,-2.06 -3.76,-3.65l-57.01 -111.31 -174.9 -128.03c-6.16,-4.43 -10.6,-8.16 -13.23,-11.03 -2.63,-2.86 -3.41,-5.62 -2.39,-8.36 0.99,-2.61 3.93,-5.49 8.73,-8.47 4.79,-2.98 11.71,-6.74 20.64,-11.31 7.51,-3.85 13.52,-6.71 18.2,-8.69 4.68,-1.97 8.48,-3.18 11.54,-3.59 3.05,-0.41 5.57,-0.22 7.55,0.56 1.94,0.9 4.04,2.14 6.41,3.88l75.2 59.65c7.27,5.75 14.75,11.93 22.32,18.48 7.7,6.59 15.48,13.56 23.68,20.94l0.5 -0.25c-1.44,-10.43 -2.63,-20.56 -3.65,-30.57 -1.02,-10.01 -1.86,-19.48 -2.62,-28.57l-4.78 -95.09c-0.53,-3.1 -0.6,-5.7 -0.11,-7.84 0.35,-2.18 1.55,-4.37 3.54,-6.66 1.95,-2.15 4.94,-4.53 9.03,-7.04 4,-2.47 9.59,-5.55 16.6,-9.14 9.26,-4.74 16.6,-8.29 21.91,-10.48 5.38,-2.23 9.44,-2.94 12.13,-2.21 2.82,0.77 4.56,3.14 5.31,7.07 0.84,3.89 1.18,9.51 1.3,16.93l1.67 216.74zm781.19 -94.29c0.32,1.75 0.15,3.49 -0.6,5.15 -0.77,1.57 -2.4,3.1 -4.82,4.48 -2.43,1.29 -5.81,2.66 -10.05,3.99 -4.24,1.33 -9.72,2.59 -16.37,3.78 -6.55,1.17 -12.04,1.87 -16.48,2.09 -4.44,0.22 -7.98,0.09 -10.72,-0.28 -2.65,-0.48 -4.71,-1.35 -5.98,-2.55 -1.37,-1.28 -2.22,-2.84 -2.53,-4.59l-50.9 -284.89 -0.55 0.1 -50.21 302.66c-0.32,2.44 -1.08,4.58 -2.46,6.44 -1.39,1.87 -3.29,3.45 -5.99,4.88 -2.62,1.33 -6.1,2.61 -10.3,3.65 -4.29,1.05 -9.53,2.08 -15.62,3.17 -6.19,1.11 -11.39,1.85 -15.81,2.16 -4.42,0.31 -8.15,0.22 -11.1,-0.3 -2.95,-0.52 -5.38,-1.33 -7.29,-2.42 -1.83,-1.19 -3.25,-2.75 -4.15,-4.59l-148.39 -267.18 -0.55 0.1 50.89 284.89c0.31,1.75 0.15,3.49 -0.6,5.15 -0.77,1.57 -2.4,3.1 -4.91,4.5 -2.62,1.32 -6,2.69 -10.14,4 -4.15,1.31 -9.55,2.56 -16.19,3.75 -6.55,1.17 -12.05,1.86 -16.48,2.09 -4.44,0.22 -8.08,0.11 -10.81,-0.26 -2.75,-0.46 -4.81,-1.33 -6.07,-2.54 -1.28,-1.29 -2.04,-2.87 -2.35,-4.62l-55.71 -311.84c-1.65,-9.23 -0.51,-16.67 3.51,-22.44 4.02,-5.76 10.05,-9.31 18.26,-10.78l46.52 -8.31c8.3,-1.49 15.62,-2.13 21.77,-1.8 6.25,0.32 11.81,1.61 16.71,3.97 4.8,2.38 9.24,5.87 13.02,10.53 3.79,4.66 7.51,10.56 10.98,17.75l112.64 195.01 1.11 -0.2 40.91 -221.96c0.96,-7.98 2.4,-14.81 4.23,-20.57 1.94,-5.68 4.41,-10.5 7.53,-14.39 3.11,-3.89 7.13,-6.99 11.87,-9.26 4.82,-2.29 10.61,-3.99 17.26,-5.18l47.99 -8.57c4.89,-0.88 9.16,-0.97 12.9,-0.31 3.72,0.58 7,1.89 9.66,3.99 2.74,1.99 4.92,4.64 6.75,7.94 1.83,3.29 3.11,7.25 3.91,11.77l55.71 311.84zm539.62 -52.32c-1.6,12.55 -4.8,23.68 -9.55,33.47 -4.73,9.7 -10.62,18.11 -17.65,25.16 -7.14,7.03 -15.24,12.8 -24.33,17.41 -9.19,4.6 -19.06,7.97 -29.67,10.41 -10.6,2.33 -21.83,3.65 -33.57,3.86 -11.76,0.3 -24.7,-0.5 -38.83,-2.3l-93.65 -11.9c-5.96,-0.76 -10.75,-3.16 -14.4,-7.22 -3.64,-4.05 -4.95,-10.08 -3.93,-18.08l39.08 -307.45c1.02,-8 3.8,-13.5 8.34,-16.52 4.54,-3.01 9.79,-4.14 15.74,-3.38l88.35 11.23c21.57,2.74 39.57,6.92 54.08,12.45 14.51,5.53 26.37,12.61 35.66,21.26 9.39,8.66 16.02,18.95 19.98,30.89 4.06,11.95 5.08,25.5 3.14,40.75 -1.09,8.56 -3.22,16.41 -6.32,23.68 -3.09,7.26 -7.22,13.72 -12.1,19.34 -4.97,5.7 -10.77,10.44 -17.51,14.41 -6.65,3.97 -14.02,6.91 -22.2,8.8 9.72,3.12 18.61,7.47 26.5,13.1 7.88,5.63 14.48,12.43 19.8,20.38 5.42,7.97 9.27,17.05 11.68,27.09 2.4,10.14 2.89,21.16 1.36,33.16zm-73.73 -160.39c0.9,-7.07 0.58,-13.53 -0.83,-19.48 -1.43,-5.85 -4.09,-11.01 -7.98,-15.28 -3.9,-4.28 -9.03,-7.77 -15.38,-10.65 -6.35,-2.79 -15.06,-4.94 -26.12,-6.35l-36.09 -4.58 -11.63 91.51 39.9 5.07c10.32,1.31 18.75,1.15 25.21,-0.58 6.44,-1.63 11.98,-4.33 16.62,-8.09 4.63,-3.76 8.25,-8.4 11.02,-13.81 2.68,-5.52 4.46,-11.34 5.28,-17.76zm-0.81 153.56c1.04,-8.19 0.58,-15.71 -1.29,-22.56 -1.89,-6.76 -5.2,-12.66 -9.94,-17.71 -4.65,-5.03 -10.93,-9.23 -18.8,-12.69 -7.89,-3.37 -18.34,-5.92 -31.45,-7.59l-42.41 -5.39 -12.77 100.44 51.71 6.57c9.95,1.27 18.45,1.31 25.6,0.04 7.05,-1.18 13.31,-3.6 18.86,-7.05 5.44,-3.46 9.99,-7.99 13.65,-13.76 3.56,-5.69 5.84,-12.49 6.84,-20.3zm510.14 224.69c-1.96,4.97 -3.75,9 -5.52,12.23 -1.74,3.14 -3.42,5.6 -5.08,7.27 -1.7,1.74 -3.33,2.81 -5.02,3.26 -1.6,0.48 -3.25,0.33 -4.74,-0.26l-165.88 -65.39c-5.58,-2.21 -9.63,-5.72 -12.17,-10.55 -2.53,-4.82 -2.31,-10.99 0.64,-18.49l113.68 -288.33c2.95,-7.5 7,-12.15 12.15,-13.95 5.14,-1.8 10.51,-1.6 16.09,0.6l165.09 65.09c1.49,0.58 2.71,1.57 3.59,2.92 0.79,1.32 1.25,3.22 1.3,5.65 -0.08,2.49 -0.45,5.47 -1.32,8.96 -0.9,3.57 -2.38,7.83 -4.41,12.97 -1.89,4.8 -3.64,8.74 -5.42,11.97 -1.74,3.14 -3.42,5.61 -5.08,7.27 -1.7,1.75 -3.33,2.82 -4.84,3.33 -1.6,0.48 -3.17,0.36 -4.65,-0.22l-118 -46.52 -31.77 80.58 99.42 39.2c1.57,0.62 2.79,1.61 3.64,3.05 0.92,1.47 1.42,3.28 1.5,5.63 0.12,2.26 -0.3,5.12 -1.21,8.69 -0.87,3.49 -2.28,7.57 -4.13,12.28 -1.96,4.97 -3.75,9 -5.46,12.06 -1.71,3.05 -3.35,5.43 -4.98,7 -1.66,1.66 -3.26,2.65 -4.88,2.92 -1.56,0.39 -3.13,0.27 -4.7,-0.35l-99.42 -39.19 -36.72 93.14 118.78 46.83c1.57,0.62 2.79,1.61 3.64,3.05 0.93,1.47 1.39,3.37 1.44,5.8 0.08,2.35 -0.38,5.3 -1.25,8.78 -0.9,3.58 -2.35,7.75 -4.31,12.72zm432.63 290.33c-1.2,1.68 -2.61,2.86 -4.32,3.48 -1.77,0.7 -4,0.61 -6.97,-0.23 -2.89,-0.79 -6.45,-2.41 -10.83,-4.83 -4.37,-2.42 -9.58,-5.78 -15.69,-10.12 -9.7,-6.9 -16.39,-12.23 -20.12,-16.03 -3.79,-3.73 -6.03,-7.05 -6.78,-9.88 -0.8,-2.76 -0.95,-5.63 -0.55,-8.45l10.24 -199.78 -97.79 137.52c-1.15,1.61 -2.64,2.73 -4.42,3.3 -1.66,0.55 -4.02,0.48 -6.78,-0.33 -2.82,-0.74 -6.23,-2.25 -10.3,-4.45 -3.99,-2.15 -8.97,-5.34 -14.7,-9.42 -5.65,-4.02 -10.23,-7.62 -13.72,-10.79 -3.49,-3.18 -6.04,-5.9 -7.66,-8.32 -1.61,-2.42 -2.51,-4.55 -2.69,-6.4 -0.13,-1.93 0.45,-3.71 1.59,-5.31l194.11 -272.98c1.2,-1.68 2.63,-2.73 4.5,-3.25 1.8,-0.44 4.12,-0.29 6.87,0.52 2.76,0.81 6.12,2.4 10.27,4.65 4.15,2.26 9.05,5.4 14.7,9.42 5.73,4.08 10.38,7.73 13.72,10.79 3.42,3.12 6.02,5.78 7.69,8.12 1.67,2.34 2.57,4.47 2.6,6.22 0.04,1.87 -0.48,3.57 -1.67,5.25l-87.74 123.39 172.38 -62.86c2.43,-1.14 4.79,-1.88 7.24,-2.09 2.38,-0.27 5.07,0.15 7.98,1.07 2.86,1 6.3,2.64 10.26,4.99 3.96,2.36 8.8,5.57 14.61,9.7 5.96,4.24 10.69,7.95 14.26,11.18 3.57,3.22 6.19,6.01 7.96,8.53 1.75,2.4 2.59,4.61 2.62,6.35 0.04,1.88 -0.42,3.5 -1.51,5.03 -1.79,2.52 -4.32,4.63 -7.58,6.46 -3.28,1.69 -8.79,4.1 -16.71,7.32l-153.36 47.74 -6.55 192.51c-1.06,8.45 -2.01,13.98 -2.73,16.46 -0.73,2.47 -1.56,4.3 -2.43,5.52zm495.27 274.56c-22.25,19.28 -44.55,33.76 -66.91,43.46 -22.36,9.69 -44.43,14.42 -66.14,14 -21.71,-0.3 -42.78,-5.73 -63.17,-16.23 -20.44,-10.57 -39.77,-26.44 -58.12,-47.63 -18.11,-20.9 -31.12,-41.51 -39.11,-61.75 -8.04,-20.32 -10.99,-40.47 -8.74,-60.65 2.23,-20.04 9.73,-40.17 22.53,-60.32 12.81,-20.15 31.02,-40.51 54.69,-61.01 21.68,-18.78 43.63,-32.96 65.78,-42.47 22.15,-9.51 44.01,-14.06 65.71,-13.63 21.64,0.35 42.72,5.79 63.1,16.29 20.51,10.5 39.97,26.39 58.45,47.72 17.62,20.34 30.45,40.59 38.57,60.85 8.06,20.18 11.06,40.4 8.82,60.58 -2.12,20.18 -9.4,40.26 -21.88,60.37 -12.54,20.17 -30.33,40.29 -53.58,60.42zm-52.48 -55c14.1,-12.21 25.95,-24.46 35.6,-36.66 9.64,-12.2 16.31,-24.55 19.93,-36.98 3.61,-12.44 3.85,-25.05 0.72,-37.83 -3.21,-12.73 -10.52,-25.75 -22,-39 -11.6,-13.39 -23.85,-22.38 -36.61,-26.95 -12.83,-4.64 -25.95,-6.04 -39.17,-4.27 -13.22,1.78 -26.45,6.41 -39.68,13.91 -13.3,7.55 -26.19,16.73 -38.8,27.65 -14.67,12.71 -26.87,25.26 -36.66,37.58 -9.79,12.33 -16.52,24.74 -20.34,37.22 -3.75,12.43 -3.98,24.91 -0.7,37.57 3.35,12.6 10.79,25.63 22.39,39.02 11.6,13.39 23.78,22.44 36.54,27.01 12.76,4.71 25.88,6.11 39.24,4.21 13.36,-1.9 26.73,-6.66 40.1,-14.27 13.38,-7.61 26.55,-17.04 39.44,-28.21zm122.84 539.09c-3.2,0.42 -5.97,0.44 -8.3,-0.15 -2.41,-0.56 -4.66,-2.12 -6.95,-4.68 -2.29,-2.57 -4.74,-6.4 -7.36,-11.49 -2.57,-5.01 -5.7,-11.72 -9.49,-20.09 -3.01,-6.67 -5.6,-12.39 -7.67,-17.21 -2.08,-4.83 -3.64,-8.96 -4.8,-12.44 -1.17,-3.49 -1.89,-6.45 -2.22,-8.77 -0.28,-2.45 -0.2,-4.54 0.17,-6.46 0.32,-1.79 1.1,-3.48 2.12,-4.87 1.11,-1.42 2.59,-2.92 4.42,-4.57l243.69 -226.08c5.18,-4.71 9.29,-8.12 12.64,-10.04 3.31,-2.01 6.31,-2.44 9.07,-1.11 2.63,1.27 5.36,4.36 8.03,9.12 2.71,4.85 6.04,11.78 10.14,20.83 3.47,7.69 6,13.75 7.63,18.26 1.63,4.51 2.54,8.11 2.81,10.77 0.19,2.69 -0.32,4.98 -1.56,6.56 -1.28,1.72 -2.95,3.5 -5.12,5.51l-214.32 191.62 0.12 0.25 283.66 -35c3.13,-0.59 5.82,-0.78 7.95,-0.61 2.26,0.21 4.4,1.3 6.54,3.32 2.03,1.97 4.29,5.16 6.68,9.53 2.35,4.29 5.34,10.45 8.89,18.31 3.48,7.69 5.92,13.78 7.34,18.29 1.42,4.5 1.54,7.94 0.39,10.42 -1.27,2.42 -3.77,4.17 -7.55,5.16 -3.73,1.07 -8.96,1.78 -15.74,2.48l-331.21 33.14z"/>
   <path class="fil1" d="M8262.78 306.26l0 672.97 -52.9 0c-17.14,-129.31 -48,-232.16 -93.06,-308.57 -21.55,-38.2 -48.98,-72.98 -81.8,-103.34 -32.81,-30.86 -68.57,-56.82 -107.26,-78.37 -38.69,-21.55 -79.34,-38.2 -122.94,-49.96 -43.1,-12.24 -86.69,-18.12 -130.77,-18.12 -48.49,0 -93.55,8.33 -135.67,24.98 -42.12,16.65 -78.37,39.18 -109.22,66.61 -30.86,27.92 -54.86,59.75 -72,95.51 -17.14,35.75 -25.96,72.98 -25.96,111.18 0,53.39 12.24,100.41 37.22,140.08 24.49,39.67 58.78,75.92 102.37,109.71 43.1,33.31 94.04,65.63 152.81,97.47 58.78,31.35 122.45,65.63 191.02,101.87 76.9,41.15 150.36,81.31 219.91,120.49 69.55,39.19 130.78,82.29 183.67,129.8 52.9,47.02 95.02,101.38 126.86,162.12 31.35,60.73 47.02,133.22 47.02,218.44 0,72.49 -15.18,142.04 -45.06,207.18 -30.37,65.63 -72,122.94 -126.37,172.41 -53.87,48.98 -118.52,88.16 -193.46,117.55 -74.94,28.89 -157.22,43.59 -246.85,43.59 -33.8,0 -62.21,-0.49 -86.21,-1.47 -24,-0.98 -47.02,-2.94 -68.57,-6.37 -22.04,-3.43 -45.06,-8.82 -68.08,-15.67 -23.51,-7.35 -51.43,-17.14 -84.24,-29.39 -22.53,-8.82 -46.04,-16.65 -70.04,-23.51 -24,-7.35 -46.04,-13.22 -65.63,-18.12 -20.08,-4.9 -37.23,-8.33 -50.94,-11.27 -14.2,-2.94 -23.02,-4.4 -26.45,-4.4 -24,0 -43.1,7.34 -56.82,21.55 -13.71,14.2 -23.99,43.59 -30.85,88.65l-52.9 0 0 -667.09 52.9 0c12.24,70.04 26.94,130.77 43.59,183.18 16.65,51.91 35.75,95.51 56.82,131.26 21.06,34.29 47.99,66.12 81.3,96 33.8,29.88 71.02,55.34 112.65,76.9 41.63,21.55 86.2,38.2 134.69,49.95 48,12.25 97.47,18.13 147.92,18.13 60.24,0 114.12,-8.82 162.12,-25.96 47.51,-17.15 88.16,-40.17 121.46,-69.55 33.8,-28.9 59.27,-63.18 76.9,-101.88 17.63,-38.69 26.45,-78.85 26.45,-120.98 0,-62.2 -12.73,-114.61 -38.69,-157.22 -25.47,-42.61 -60.25,-80.32 -103.84,-114.12 -43.1,-33.3 -93.55,-65.14 -151.34,-96 -57.8,-30.36 -118.53,-65.14 -182.69,-103.34 -72.49,-43.1 -142.04,-83.76 -209.63,-122.45 -67.1,-38.69 -126.37,-81.3 -177.79,-127.83 -51.92,-46.04 -93.06,-98.94 -123.92,-158.21 -30.86,-59.26 -46.53,-130.28 -46.53,-212.56 0,-68.57 14.2,-134.2 43.1,-196.41 28.41,-62.2 68.08,-116.57 118.53,-163.59 50.94,-46.53 110.69,-83.75 179.75,-111.18 69.06,-26.94 144.98,-40.65 226.77,-40.65 101.39,0 210.61,25.47 327.67,75.92 51.92,24 89.63,35.75 113.14,35.75 24.98,0 45.06,-7.35 61.22,-22.04 15.68,-14.69 28.41,-44.57 37.72,-89.63l52.9 0zm1632.95 1337.12l-752.81 0 -131.75 307.59c-32.33,74.93 -48.49,131.26 -48.49,169.95 0,15.19 2.45,29.39 7.84,42.12 5.39,13.23 16.16,24.98 32.32,35.76 16.66,11.26 39.68,20.57 69.55,27.43 29.39,7.34 68.57,12.73 116.57,16.65l0 52.9 -614.19 0 0 -52.9c80.32,-14.2 133.22,-32.82 158.2,-55.84 24.98,-23.02 50.45,-57.79 76.9,-104.32 25.96,-46.04 54.85,-104.82 85.22,-175.34l683.25 -1601.12 50.45 0 677.38 1618.26c27.92,66.61 53.39,120.49 76.89,161.14 23.51,40.65 47.51,72.49 72.49,95.02 24.98,22.04 51.92,37.71 80.82,46.53 29.39,8.32 64.16,13.71 104.32,15.67l0 52.9 -767 0 0 -52.9c38.2,-1.96 70.04,-6.37 95.5,-12.74 25.96,-6.85 46.04,-15.67 60.74,-25.95 14.69,-10.78 24.98,-22.53 31.34,-36.25 6.37,-13.22 9.31,-27.92 9.31,-44.57 0.98,-21.06 -3.43,-48 -13.71,-80.81 -9.8,-33.31 -24.49,-72.98 -43.6,-119.02l-117.54 -280.16zm-40.17 -105.79l-330.11 -785.62 -337.96 785.62 668.07 0zm2504.29 220.4l47.51 10.28 -167.51 527.51 -1507.57 0 0 -52.9 72.98 0c81.31,0 140.08,-26.94 176.32,-80.33 20.09,-29.87 29.88,-100.4 29.88,-212.56l0 -1255.33c0,-122.45 -13.22,-198.85 -40.16,-228.24 -37.23,-42.12 -92.57,-63.18 -166.04,-63.18l-72.98 0 0 -52.9 881.62 0 0 52.9c-52.9,0 -96.49,2.45 -131.26,7.34 -35.27,4.41 -64.17,11.76 -86.7,21.55 -22.04,9.31 -40.16,20.58 -52.89,33.31 -12.74,13.22 -23.51,27.43 -32.33,42.61 -15.18,29.39 -23.02,102.86 -23.02,219.43l0 1222.51c0,33.3 0.98,62.2 3.43,86.2 2.45,24 6.86,43.59 12.24,59.26 5.88,16.17 13.72,28.9 23.02,38.7 9.8,10.28 22.05,18.12 37.72,24 22.53,9.3 97.47,14.2 223.83,14.2l142.53 0c148.4,0 253.22,-10.77 314.93,-32.82 30.37,-10.77 59.27,-24.98 86.21,-43.1 26.44,-18.12 52.89,-42.12 78.36,-72.49 24.98,-29.87 49.96,-66.61 74.45,-109.71 24.49,-43.1 49.47,-95.02 75.43,-156.24zm1216.14 -1407.65l678.84 0 0 52.9 -37.22 0c-11.27,0 -26.94,2.94 -46.53,8.81 -19.59,5.39 -40.16,13.72 -62.2,24 -22.04,10.78 -44.57,24 -67.1,40.16 -23.02,16.66 -44.08,34.78 -63.19,54.86 -20.08,21.06 -41.63,48 -65.14,81.8 -23.51,33.3 -49.96,72.97 -79.83,119.01l-469.22 739.09 0 487.83c0,119.51 13.22,193.96 40.16,223.84 35.76,40.16 93.06,60.24 172.9,60.24l63.18 0 0 52.9 -828.72 0 0 -52.9 69.06 0c82.28,0 141.06,-24.98 175.34,-74.45 21.06,-29.88 31.84,-99.92 31.84,-209.63l0 -460.89 -533.38 -815c-31.34,-48.49 -57.79,-87.68 -79.34,-116.57 -21.55,-29.39 -38.21,-50.45 -49.47,-62.7 -5.88,-5.87 -15.19,-14.2 -28.9,-24.98 -13.22,-11.26 -29.88,-22.53 -49.96,-33.79 -20.08,-11.76 -42.61,-21.55 -66.61,-29.39 -24.49,-8.32 -49.96,-12.24 -76.9,-12.24l0 -52.9 831.66 0 0 52.9 -43.1 0c-21.06,0 -42.12,2.45 -63.67,7.34 -21.55,4.41 -40.65,12.25 -57.8,23.02 -17.14,10.29 -31.34,23.51 -42.12,39.19 -11.26,15.67 -16.65,34.77 -16.65,56.81 0,34.29 29.39,96.49 87.67,186.61l405.55 626.93 381.54 -599.99c57.31,-89.63 86.2,-156.73 86.2,-200.81 -1.96,-20.09 -6.36,-38.7 -12.73,-55.84 -6.86,-17.14 -17.63,-32.33 -31.84,-44.57 -14.2,-12.24 -33.79,-22.04 -58.77,-28.41 -24.98,-6.85 -56.33,-10.28 -93.55,-10.28l0 -52.9zm1920.94 1945.44l-750.84 -1636.87 0 1299.89c0,119.51 12.73,193.96 38.69,223.84 35.76,40.16 91.59,60.24 168.49,60.24l69.06 0 0 52.9 -678.85 0 0 -52.9 69.06 0c82.29,0 141.06,-24.98 175.35,-74.45 21.06,-29.88 31.83,-99.92 31.83,-209.63l0 -1271.49c0,-84.24 -9.79,-146.44 -28.89,-186.61 -6.37,-14.2 -15.68,-27.42 -27.43,-39.18 -11.27,-12.24 -26.94,-22.53 -46.53,-30.86 -19.59,-8.81 -43.59,-15.67 -71.02,-20.08 -27.92,-4.89 -62.2,-7.34 -102.37,-7.34l0 -52.9 551.99 0 704.32 1522.26 695.01 -1522.26 552.48 0 0 52.9 -67.59 0c-83.27,0 -142.53,24.98 -176.82,74.44 -21.06,29.88 -31.83,99.43 -31.83,209.63l0 1271.49c0,119.51 13.22,193.96 40.16,223.84 35.75,40.16 91.59,60.24 168.49,60.24l67.59 0 0 52.9 -828.72 0 0 -52.9 69.06 0c82.28,0 141.06,-24.98 175.34,-74.45 21.06,-29.88 31.84,-99.43 31.84,-209.63l0 -1299.89 -750.85 1636.87 -47.02 0zm2769.75 -994.27c79.35,17.14 146.94,40.65 202.77,70.53 55.84,29.87 101.39,64.65 136.65,104.81 35.27,40.16 61.23,84.74 77.39,132.73 16.16,48.49 24.49,99.43 24.49,153.31 0,48 -7.84,95.51 -23.51,143.02 -16.16,47.02 -38.69,91.59 -68.57,133.22 -29.39,41.63 -65.63,79.83 -108.24,113.63 -42.61,34.28 -90.61,61.71 -144,82.77 -106.28,40.17 -269.38,60.25 -488.32,60.25l-918.84 0 0 -52.9 73.47 0c80.32,0 139.1,-25.96 175.34,-77.39 22.04,-33.79 33.31,-104.81 33.31,-214.03l0 -1256.8c0,-119.51 -13.72,-195.91 -41.63,-228.24 -37.72,-42.12 -93.06,-63.18 -167.02,-63.18l-73.47 0 0 -52.9 840.97 0c156.73,0 282.6,11.27 377.62,34.28 71.51,17.15 134.69,41.64 190.04,72.98 54.85,31.84 100.89,68.57 138.61,110.69 37.22,41.64 65.14,88.17 84.24,139.59 19.1,50.94 28.9,104.82 28.9,161.14 0,97.47 -29.39,184.66 -88.65,261.55 -58.78,76.9 -145.96,133.71 -261.55,170.94zm-751.82 -77.88c72.49,13.23 162.61,20.08 270.85,20.08 140.08,0 244.89,-14.69 313.46,-44.08 35.76,-15.67 66.62,-34.77 94.04,-58.77 27.43,-24 49.96,-50.45 68.08,-80.33 18.13,-29.39 31.84,-61.22 41.64,-95.51 9.3,-34.28 14.2,-70.04 14.2,-107.26 0,-55.35 -11.76,-108.24 -35.27,-158.2 -23.02,-49.96 -57.79,-93.55 -103.83,-130.78 -45.55,-37.22 -102.37,-66.61 -170.45,-88.65 -67.59,-22.04 -145.95,-32.81 -234.6,-32.81 -97.47,0 -183.67,10.28 -258.12,31.34l0 744.97zm0 930.6c110.2,25.96 219.42,38.69 328.65,38.69 87.18,0 163.58,-10.28 230.2,-31.34 66.61,-21.07 122.44,-49.96 167.5,-87.19 44.57,-36.73 78.37,-79.83 100.9,-128.81 22.53,-49.47 33.79,-102.37 33.79,-158.69 0,-62.21 -12.24,-120.49 -36.73,-174.37 -24.49,-53.87 -61.71,-100.89 -111.67,-140.57 -50.45,-39.67 -113.63,-71.02 -189.55,-94.04 -75.92,-23.02 -165.55,-34.28 -268.89,-34.28 -60.25,0 -111.18,0.98 -152.82,2.94 -41.63,1.96 -75.42,5.39 -101.38,9.79l0 797.87zm1968.94 -1698.1l0 767.01 428.57 0c62.2,0 112.65,-5.39 151.34,-16.65 39.18,-10.78 69.55,-27.92 91.59,-51.43 22.04,-23.51 37.22,-52.9 46.04,-88.16 8.33,-35.27 14.21,-77.39 17.14,-125.88l52.9 0 0 675.91 -52.9 0c-6.85,-47.51 -13.22,-86.2 -20.08,-116.08 -6.85,-29.88 -13.71,-51.92 -20.08,-65.14 -8.81,-17.14 -19.59,-31.84 -33.3,-44.57 -13.23,-13.23 -30.37,-24 -51.43,-33.8 -21.06,-9.3 -46.53,-16.65 -76.41,-21.06 -29.88,-4.9 -64.65,-7.34 -104.81,-7.34l-428.57 0 0 642.6c0,85.22 3.92,138.12 11.27,158.2 3.92,8.32 8.81,16.65 14.69,24.49 5.39,7.35 14.21,13.71 24.98,19.1 10.78,5.39 25.47,9.31 43.1,12.24 17.63,2.94 40.16,4.41 66.61,4.41l330.12 0c56.81,0 103.83,-1.47 141.55,-4.9 37.71,-3.42 71.02,-9.3 98.94,-17.14 28.4,-8.32 53.38,-20.08 74.93,-34.77 21.55,-14.7 44.08,-33.8 68.08,-56.82 29.39,-28.41 59.76,-65.63 90.61,-110.2 30.37,-45.06 61.23,-97.96 91.59,-158.2l57.31 0 -167.51 487.83 -1501.69 0 0 -52.9 69.06 0c18.13,0 37.23,-1.96 57.8,-5.88 20.08,-3.92 38.69,-9.79 56.81,-18.61 17.64,-8.33 33.8,-19.1 48,-32.33 14.21,-12.73 24.49,-27.91 30.37,-45.06 11.26,-29.87 17.14,-92.57 17.14,-188.07l0 -1264.15c0,-122.44 -12.24,-198.36 -37.22,-228.24 -34.78,-38.2 -92.08,-57.3 -172.9,-57.3l-69.06 0 0 -52.9 1501.69 0 0 426.11 -35.26 0c-10.29,-51.91 -21.06,-94.52 -31.35,-127.83 -10.77,-33.3 -22.53,-61.22 -36.24,-83.26 -13.23,-22.04 -28.41,-39.68 -45.55,-52.41 -17.64,-13.22 -38.21,-24.98 -61.72,-35.27 -39.18,-14.2 -106.77,-21.55 -202.28,-21.55l-533.87 0zm2058.58 759.66l714.6 714.12c117.06,117.54 217.46,197.87 300.24,240.97 85.22,42.12 169.46,66.12 252.73,72l0 52.9 -925.7 0 0 -52.9c55.35,0 95.02,-9.31 119.51,-27.92 24,-18.61 36.24,-39.67 36.24,-62.69 0,-11.27 -0.49,-21.55 -1.47,-30.86 -0.98,-8.81 -4.41,-18.61 -10.77,-29.39 -6.37,-10.28 -16.16,-23.99 -29.88,-40.16 -13.71,-16.16 -34.28,-37.22 -60.73,-63.18l-670.03 -665.13 0 627.91c0,45.55 0.98,83.26 2.94,111.67 1.96,28.89 5.38,52.41 10.77,70.53 5.39,18.12 13.23,32.81 23.51,44.08 10.78,10.77 24.49,21.06 42.12,30.85 41.15,23.02 84.74,34.29 130.78,34.29l66.12 0 0 52.9 -831.66 0 0 -52.9 69.06 0c81.79,0 140.08,-23.51 175.83,-70.53 23.02,-29.39 34.29,-103.35 34.29,-220.89l0 -1256.8c0,-44.08 -0.49,-80.33 -1.96,-109.22 -1.47,-28.9 -5.39,-52.41 -10.78,-71.02 -5.87,-18.61 -13.71,-33.8 -24,-45.06 -9.79,-11.76 -23.51,-22.04 -41.14,-31.84 -42.12,-23.02 -86.2,-34.28 -132.24,-34.28l-69.06 0 0 -52.9 831.66 0 0 52.9 -66.12 0c-18.13,0 -37.23,1.96 -56.82,5.87 -19.59,3.92 -38.2,9.8 -56.32,17.64 -17.64,8.32 -33.8,18.61 -48,31.83 -14.7,12.74 -24.98,28.41 -31.84,46.53 -11.26,30.37 -17.14,93.55 -17.14,189.06l0 595.09c37.22,-30.85 79.83,-68.08 127.34,-112.16 48,-44.08 96.98,-90.12 146.94,-139.1 50.45,-48.49 99.92,-97.47 148.89,-145.96 49.47,-48.97 94.04,-94.03 134.21,-135.67 40.16,-41.14 73.95,-77.38 100.89,-108.24 27.43,-30.37 44.57,-50.94 52.41,-61.22 25.96,-38.21 38.69,-72 38.69,-100.41 0,-22.04 -9.79,-41.63 -29.38,-58.28 -19.6,-16.66 -53.88,-24.98 -102.37,-24.98l-44.57 0 0 -52.9 714.11 0 0 52.9c-42.12,1.96 -80.33,7.83 -114.61,17.14 -17.14,5.88 -36.24,13.22 -57.31,23.02 -21.06,9.31 -44.57,22.53 -69.55,38.69 -25.46,16.17 -53.38,36.25 -83.26,59.27 -30.37,23.51 -63.67,51.91 -99.92,85.22l-587.25 589.21zm2318.16 -909.53c251.26,0 469.71,96 655.34,288.48 185.63,191.02 278.2,430.04 278.2,717.05 0,295.35 -93.06,540.24 -279.67,735.66 -186.12,194.94 -411.91,292.41 -676.89,292.41 -268.4,0 -493.7,-95.02 -675.41,-285.55 -181.72,-190.04 -272.33,-436.4 -272.33,-738.6 0,-308.56 105.31,-560.81 315.43,-755.74 182.69,-168.98 401.13,-253.71 655.33,-253.71zm-27.43 105.79c-97.95,0 -185.63,21.06 -262.03,63.19 -76.41,41.63 -140.57,101.87 -192.49,179.75 -51.92,77.87 -91.59,171.91 -119.02,282.61 -26.94,111.18 -40.65,235.09 -40.65,372.72 0,136.65 13.23,261.55 40.16,375.18 26.45,113.63 66.12,211.1 118.04,292.89 51.92,81.8 116.08,144.98 192.49,190.53 76.41,45.55 165.06,68.08 264.97,68.08 90.12,0 173.39,-17.14 250.28,-51.43 76.9,-34.28 143.51,-87.67 199.84,-159.67 56.32,-72.48 100.4,-164.08 132.24,-275.75 31.84,-112.16 48,-245.38 48,-399.66 0,-148.41 -13.22,-280.16 -39.18,-396.24 -26.45,-116.08 -66.12,-214.04 -119.02,-294.36 -52.9,-80.33 -119.02,-141.55 -197.88,-184.16 -78.36,-42.62 -170.44,-63.68 -275.75,-63.68zm3162.56 -61.71l0 52.9c-41.14,7.83 -76.41,18.61 -105.79,32.81 -28.9,14.7 -54.86,33.31 -76.9,56.33 -22.04,22.53 -41.14,50.45 -58.28,82.28 -16.66,31.84 -33.31,68.57 -50.94,109.71l-678.36 1655.49 -53.38 0 -727.83 -1677.04c-38.2,-88.16 -64.65,-140.57 -78.86,-157.71 -23.99,-29.87 -53.38,-52.89 -87.67,-69.55 -34.28,-16.65 -81.79,-27.43 -142.04,-32.32l0 -52.9 793.46 0 0 52.9c-45.55,4.89 -82.77,10.77 -110.69,18.61 -28.41,7.84 -49.96,17.14 -65.14,27.92 -15.19,11.26 -25.47,23.51 -30.86,37.22 -5.39,14.2 -7.84,29.88 -7.84,47.02 0,48.49 22.04,123.43 66.12,223.83l494.69 1141.21 458.93 -1127c45.06,-111.68 67.59,-189.06 67.59,-231.18 0,-29.39 -15.67,-57.31 -46.53,-83.76 -30.85,-26.45 -83.75,-44.08 -159.18,-53.87l0 -52.9 599.5 0z"/>
   <path class="fil1" d="M8302.3 3556.27l0 -52.89 687.66 0 0 52.89 -72.98 0c-76.41,0 -135.18,31.84 -176.32,96 -20.08,30.86 -29.88,99.92 -29.88,206.69l0 790.03c0,193.96 -19.59,345.79 -58.77,455.01 -24.98,69.55 -60.25,129.31 -105.8,178.78 -46.04,48.97 -98.94,89.63 -159.18,120.97 -60.24,31.84 -126.37,54.86 -198.85,70.04 -72,14.7 -146.94,22.04 -225.31,22.04 -211.09,0 -372.23,-36.73 -482.93,-110.69 -70.04,-45.55 -123.91,-94.53 -161.63,-145.47 -37.71,-51.42 -65.14,-107.75 -82.77,-169.46 -17.63,-61.72 -27.92,-130.29 -30.86,-205.22 -2.94,-75.43 -4.4,-160.65 -4.4,-256.16l0 -761.13c0,-60.25 -3.92,-109.71 -12.25,-147.92 -7.84,-38.2 -20.57,-68.08 -37.71,-89.14 -17.14,-21.06 -39.19,-35.26 -65.14,-43.1 -26.45,-7.35 -57.8,-11.27 -94.04,-11.27l-72.98 0 0 -52.89 840.47 0 0 52.89 -74.44 0c-46.04,0 -82.78,6.37 -110.21,19.6 -27.91,12.73 -48.98,31.83 -63.18,56.32 -14.2,24.98 -23.51,55.84 -27.92,92.08 -4.4,36.25 -6.36,77.39 -6.36,123.43l0 848.31c0,48 1.47,95.51 4.4,142.53 2.94,46.53 8.33,92.08 17.15,135.67 8.32,43.1 20.08,84.73 34.77,123.43 15.18,38.69 34.29,74.44 58.29,106.77 37.22,51.92 87.18,92.57 149.38,122.94 62.69,29.87 142.53,45.06 240,45.06 62.69,0 122.93,-7.35 180.73,-22.04 57.79,-15.19 110.69,-35.76 159.18,-61.72 48,-26.45 89.63,-57.79 124.9,-93.55 35.26,-35.75 62.2,-75.42 80.32,-118.52 37.22,-87.19 55.84,-234.12 55.84,-440.81l0 -788.07c0,-122.45 -13.23,-198.37 -40.17,-228.24 -37.22,-42.12 -92.57,-63.19 -166.03,-63.19l-72.98 0zm954.1 -52.89l526.03 0 1190.19 1460.54 0 -1123.08c0,-120 -13.23,-194.44 -40.17,-224.32 -36.73,-40.16 -92.57,-60.25 -168.48,-60.25l-67.59 0 0 -52.89 678.84 0 0 52.89 -69.06 0c-82.28,0 -141.06,24.98 -175.34,74.45 -21.06,29.88 -31.84,99.92 -31.84,209.63l0 1640.79 -52.9 0 -1281.28 -1566.34 0 1197.04c0,119.51 12.74,194.45 38.69,223.83 35.76,40.17 91.59,60.25 168.49,60.25l69.06 0 0 52.89 -678.84 0 0 -52.89 67.59 0c83.26,0 142.53,-24.98 176.81,-74.45 21.06,-29.88 31.84,-99.92 31.84,-209.63l0 -1353.28c-28.41,-33.31 -52.41,-60.25 -71.51,-80.33 -19.1,-20.08 -37.23,-36.73 -54.37,-49.47 -17.14,-12.73 -35.75,-23.51 -55.83,-31.83 -20.09,-7.84 -45.07,-17.15 -74.45,-27.92 -27.43,-8.33 -69.55,-12.74 -125.88,-12.74l0 -52.89zm3340.35 1892.54l0 52.89 -834.6 0 0 -52.89 69.06 0c81.8,0 140.08,-23.51 175.84,-70.53 23.02,-29.39 34.28,-103.35 34.28,-220.9l0 -1256.79c0,-46.04 -0.98,-83.27 -2.94,-112.16 -1.96,-28.41 -5.38,-52.41 -10.77,-71.02 -5.39,-18.62 -12.74,-33.31 -23.02,-43.59 -9.8,-10.78 -23.51,-20.57 -41.14,-30.37 -42.13,-23.02 -86.21,-34.29 -132.25,-34.29l-69.06 0 0 -52.89 834.6 0 0 52.89 -70.04 0c-80.32,0 -138.12,23.51 -173.38,70.53 -24,29.39 -35.76,102.86 -35.76,220.9l0 1256.79c0,46.04 0.98,83.27 2.94,112.16 1.96,28.41 5.39,51.92 10.78,70.04 5.38,18.13 13.22,32.82 23.51,44.09 10.28,10.77 24.49,21.06 41.63,30.85 41.14,23.02 84.24,34.29 130.28,34.29l70.04 0zm2428.86 -1892.54l0 52.89c-41.15,7.84 -76.41,18.62 -105.8,32.82 -28.9,14.69 -54.85,33.31 -76.9,56.33 -22.04,22.53 -41.14,50.44 -58.28,82.28 -16.65,31.84 -33.31,68.57 -50.94,109.71l-678.35 1655.49 -53.39 0 -727.82 -1677.04c-38.21,-88.16 -64.66,-140.57 -78.86,-157.71 -24,-29.88 -53.39,-52.9 -87.67,-69.55 -34.29,-16.65 -81.8,-27.43 -142.04,-32.33l0 -52.89 793.46 0 0 52.89c-45.55,4.9 -82.78,10.78 -110.7,18.62 -28.4,7.83 -49.95,17.14 -65.14,27.91 -15.18,11.27 -25.47,23.51 -30.85,37.23 -5.39,14.2 -7.84,29.87 -7.84,47.02 0,48.49 22.04,123.42 66.12,223.83l494.69 1141.21 458.93 -1127.01c45.06,-111.67 67.59,-189.05 67.59,-231.18 0,-29.38 -15.68,-57.3 -46.53,-83.75 -30.86,-26.45 -83.76,-44.08 -159.18,-53.88l0 -52.89 599.5 0zm921.78 105.79l0 767.01 428.56 0c62.2,0 112.65,-5.39 151.34,-16.65 39.19,-10.78 69.55,-27.92 91.59,-51.43 22.04,-23.51 37.23,-52.9 46.04,-88.16 8.33,-35.27 14.21,-77.39 17.15,-125.88l52.89 0 0 675.91 -52.89 0c-6.86,-47.51 -13.23,-86.2 -20.09,-116.08 -6.85,-29.88 -13.71,-51.92 -20.08,-65.14 -8.81,-17.15 -19.59,-31.84 -33.3,-44.57 -13.23,-13.23 -30.37,-24 -51.43,-33.8 -21.06,-9.3 -46.53,-16.65 -76.41,-21.06 -29.87,-4.9 -64.65,-7.35 -104.81,-7.35l-428.56 0 0 642.6c0,85.23 3.91,138.12 11.26,158.21 3.92,8.32 8.82,16.65 14.69,24.49 5.39,7.34 14.21,13.71 24.98,19.1 10.78,5.38 25.47,9.3 43.1,12.24 17.64,2.94 40.17,4.41 66.61,4.41l330.12 0c56.82,0 103.84,-1.47 141.55,-4.9 37.71,-3.43 71.02,-9.3 98.94,-17.14 28.41,-8.33 53.38,-20.08 74.93,-34.78 21.56,-14.69 44.09,-33.79 68.09,-56.81 29.38,-28.41 59.75,-65.63 90.61,-110.2 30.36,-45.06 61.22,-97.96 91.59,-158.2l57.3 0 -167.51 487.82 -1501.68 0 0 -52.89 69.06 0c18.12,0 37.22,-1.96 57.79,-5.88 20.08,-3.92 38.69,-9.8 56.82,-18.61 17.63,-8.33 33.79,-19.1 48,-32.33 14.2,-12.73 24.48,-27.92 30.36,-45.06 11.27,-29.88 17.14,-92.57 17.14,-188.08l0 -1264.14c0,-122.45 -12.24,-198.36 -37.22,-228.24 -34.77,-38.2 -92.08,-57.31 -172.89,-57.31l-69.06 0 0 -52.89 1501.68 0 0 426.11 -35.26 0c-10.29,-51.92 -21.06,-94.53 -31.35,-127.83 -10.77,-33.31 -22.53,-61.23 -36.24,-83.27 -13.23,-22.04 -28.41,-39.67 -45.55,-52.4 -17.63,-13.23 -38.2,-24.98 -61.71,-35.27 -39.19,-14.2 -106.78,-21.55 -202.29,-21.55l-533.86 0zm3439.28 1839.64l-520.15 0 -659.75 -911c-24.98,0.98 -47.51,1.96 -67.1,2.45 -19.59,0.49 -37.22,0.49 -52.4,0.49 -12.25,0 -25.96,0 -40.17,-0.49 -14.2,-0.49 -29.38,-1.47 -44.57,-2.45l0 566.19c0,122.94 13.23,198.86 40.16,228.73 36.25,42.13 90.62,63.19 163.1,63.19l75.92 0 0 52.89 -831.66 0 0 -52.89 72.98 0c81.31,0 140.08,-26.94 176.32,-80.33 20.09,-29.88 29.88,-99.92 29.88,-211.1l0 -1256.79c0,-122.45 -13.22,-198.86 -40.16,-228.24 -37.22,-42.12 -92.57,-63.19 -166.04,-63.19l-72.98 0 0 -52.89 709.21 0c205.23,0 357.06,15.18 456.98,46.04 48.49,14.2 94.53,35.75 137.14,64.16 42.61,28.9 79.83,62.69 111.67,101.87 32.32,39.19 57.79,83.27 76.4,131.76 18.62,48.98 27.92,100.89 27.92,156.24 0,60.24 -9.79,116.57 -28.89,168.49 -19.11,51.91 -48.49,99.42 -88.66,142.53 -39.67,43.1 -89.63,80.32 -150.36,111.67 -60.25,31.83 -131.26,56.81 -213.06,74.94l402.61 558.84c93.06,129.31 171.91,214.53 237.05,255.67 67.1,42.12 153.31,69.06 258.61,80.33l0 52.89zm-1384.14 -1000.63c18.12,0 34.29,0.49 47.51,0.98 13.23,0.49 24.49,0.49 33.31,0.49 93.06,0 174.85,-10.78 245.38,-32.33 70.53,-21.55 129.3,-51.43 176.32,-89.63 47.02,-38.2 82.29,-83.26 105.8,-135.67 23.51,-51.92 35.26,-108.73 35.26,-169.96 0,-60.24 -10.28,-115.1 -30.36,-165.55 -20.09,-49.95 -48.49,-93.55 -85.72,-129.79 -36.73,-36.24 -80.81,-64.65 -132.24,-84.73 -51.43,-20.08 -107.75,-29.88 -168.98,-29.88 -27.91,0 -60.73,1.96 -97.95,6.37 -37.72,4.41 -80.33,11.26 -128.33,21.06l0 808.64zm2975.46 -988.88l0 672.96 -52.9 0c-17.14,-129.3 -48,-232.16 -93.06,-308.56 -21.55,-38.21 -48.98,-72.98 -81.79,-103.35 -32.82,-30.85 -68.57,-56.81 -107.26,-78.36 -38.7,-21.55 -79.35,-38.21 -122.94,-49.96 -43.1,-12.25 -86.69,-18.12 -130.77,-18.12 -48.49,0 -93.55,8.32 -135.68,24.98 -42.12,16.65 -78.36,39.18 -109.22,66.61 -30.85,27.91 -54.85,59.75 -72,95.51 -17.14,35.75 -25.96,72.97 -25.96,111.18 0,53.38 12.25,100.4 37.23,140.08 24.49,39.67 58.77,75.91 102.36,109.71 43.1,33.3 94.04,65.63 152.82,97.47 58.77,31.34 122.44,65.63 191.01,101.87 76.9,41.14 150.37,81.31 219.92,120.49 69.55,39.18 130.77,82.28 183.67,129.79 52.9,47.02 95.02,101.39 126.85,162.12 31.35,60.74 47.02,133.23 47.02,218.45 0,72.49 -15.18,142.04 -45.06,207.18 -30.36,65.63 -72,122.94 -126.36,172.4 -53.88,48.98 -118.53,88.17 -193.47,117.55 -74.94,28.9 -157.22,43.6 -246.85,43.6 -33.8,0 -62.2,-0.49 -86.2,-1.47 -24,-0.98 -47.02,-2.94 -68.57,-6.37 -22.04,-3.43 -45.06,-8.82 -68.08,-15.68 -23.51,-7.34 -51.43,-17.14 -84.25,-29.38 -22.53,-8.82 -46.04,-16.66 -70.04,-23.51 -24,-7.35 -46.04,-13.23 -65.63,-18.12 -20.08,-4.9 -37.22,-8.33 -50.94,-11.27 -14.2,-2.94 -23.02,-4.41 -26.44,-4.41 -24,0 -43.11,7.35 -56.82,21.55 -13.71,14.21 -24,43.59 -30.86,88.66l-52.89 0 0 -667.1 52.89 0c12.25,70.04 26.94,130.78 43.59,183.19 16.66,51.91 35.76,95.5 56.82,131.26 21.06,34.28 48,66.12 81.3,96 33.8,29.87 71.02,55.34 112.66,76.89 41.63,21.55 86.2,38.21 134.69,49.96 48,12.25 97.46,18.12 147.91,18.12 60.25,0 114.12,-8.81 162.12,-25.96 47.51,-17.14 88.16,-40.16 121.47,-69.55 33.79,-28.89 59.26,-63.18 76.9,-101.87 17.63,-38.69 26.44,-78.86 26.44,-120.98 0,-62.2 -12.73,-114.61 -38.69,-157.22 -25.47,-42.61 -60.24,-80.33 -103.83,-114.12 -43.11,-33.31 -93.55,-65.14 -151.35,-96 -57.79,-30.37 -118.53,-65.14 -182.69,-103.34 -72.49,-43.11 -142.04,-83.76 -209.63,-122.45 -67.1,-38.69 -126.36,-81.31 -177.79,-127.84 -51.92,-46.04 -93.06,-98.93 -123.92,-158.2 -30.85,-59.26 -46.53,-130.28 -46.53,-212.57 0,-68.57 14.21,-134.2 43.1,-196.4 28.41,-62.2 68.09,-116.57 118.53,-163.59 50.94,-46.53 110.7,-83.75 179.76,-111.18 69.06,-26.94 144.97,-40.65 226.77,-40.65 101.38,0 210.61,25.47 327.67,75.91 51.91,24 89.63,35.76 113.14,35.76 24.97,0 45.06,-7.35 61.22,-22.04 15.67,-14.7 28.41,-44.57 37.71,-89.63l52.9 0zm1468.38 1936.62l0 52.89 -834.6 0 0 -52.89 69.06 0c81.8,0 140.08,-23.51 175.84,-70.53 23.02,-29.39 34.28,-103.35 34.28,-220.9l0 -1256.79c0,-46.04 -0.98,-83.27 -2.94,-112.16 -1.96,-28.41 -5.38,-52.41 -10.77,-71.02 -5.39,-18.62 -12.74,-33.31 -23.02,-43.59 -9.8,-10.78 -23.51,-20.57 -41.14,-30.37 -42.13,-23.02 -86.21,-34.29 -132.25,-34.29l-69.06 0 0 -52.89 834.6 0 0 52.89 -70.04 0c-80.32,0 -138.12,23.51 -173.38,70.53 -24,29.39 -35.76,102.86 -35.76,220.9l0 1256.79c0,46.04 0.98,83.27 2.94,112.16 1.96,28.41 5.39,51.92 10.78,70.04 5.38,18.13 13.22,32.82 23.51,44.09 10.28,10.77 24.49,21.06 41.63,30.85 41.14,23.02 84.24,34.29 130.28,34.29l70.04 0zm2043.88 -1892.54l0 455.5 -32.32 0c-7.84,-60.73 -20.57,-112.16 -38.21,-154.77 -17.63,-42.13 -41.14,-76.41 -69.55,-102.37 -28.89,-26.45 -64.16,-45.06 -105.3,-57.3 -41.14,-11.76 -89.14,-17.64 -144,-17.64l-274.77 0 0 1485.04c0,119.51 12.74,194.45 38.7,223.83 35.26,40.17 91.1,60.25 167.5,60.25l67.1 0 0 52.89 -825.78 0 0 -52.89 69.06 0c82.29,0 141.06,-24.98 175.34,-74.45 21.07,-29.88 31.84,-99.43 31.84,-209.63l0 -1485.04 -233.63 0c-58.77,0 -110.69,4.41 -154.28,12.74 -44.08,8.81 -81.31,24.98 -111.67,48.49 -30.86,24 -55.35,57.79 -74.45,101.38 -19.1,43.59 -33.31,99.92 -43.1,169.47l-55.84 0 0 -455.5 1613.36 0zm1767.16 0l678.84 0 0 52.89 -37.22 0c-11.27,0 -26.94,2.94 -46.53,8.82 -19.59,5.39 -40.17,13.71 -62.21,24 -22.04,10.77 -44.57,24 -67.1,40.16 -23.02,16.65 -44.08,34.78 -63.18,54.86 -20.08,21.06 -41.63,48 -65.14,81.79 -23.51,33.31 -49.96,72.98 -79.84,119.02l-469.21 739.09 0 487.83c0,119.51 13.22,193.96 40.16,223.83 35.75,40.17 93.06,60.25 172.89,60.25l63.19 0 0 52.89 -828.72 0 0 -52.89 69.06 0c82.28,0 141.06,-24.98 175.34,-74.45 21.06,-29.88 31.84,-99.92 31.84,-209.63l0 -460.89 -533.38 -815.01c-31.35,-48.49 -57.8,-87.67 -79.35,-116.57 -21.55,-29.38 -38.2,-50.44 -49.46,-62.69 -5.88,-5.88 -15.19,-14.2 -28.9,-24.98 -13.23,-11.26 -29.88,-22.53 -49.96,-33.79 -20.08,-11.76 -42.61,-21.55 -66.61,-29.39 -24.49,-8.33 -49.96,-12.25 -76.9,-12.25l0 -52.89 831.66 0 0 52.89 -43.1 0c-21.06,0 -42.12,2.45 -63.67,7.35 -21.55,4.41 -40.66,12.25 -57.8,23.02 -17.14,10.29 -31.34,23.51 -42.12,39.18 -11.27,15.68 -16.65,34.78 -16.65,56.82 0,34.28 29.38,96.49 87.67,186.61l405.54 626.93 381.55 -599.99c57.3,-89.63 86.2,-156.74 86.2,-200.82 -1.96,-20.08 -6.37,-38.69 -12.73,-55.83 -6.86,-17.14 -17.64,-32.33 -31.84,-44.57 -14.2,-12.25 -33.8,-22.04 -58.78,-28.41 -24.97,-6.86 -56.32,-10.29 -93.54,-10.29l0 -52.89z"/>
  </g>
 </g>
</svg>
